<svg xmlns="http://www.w3.org/2000/svg" width="62.78" height="49.687" viewBox="0 0 62.78 49.687">
  <metadata><?xpacket begin="﻿" id="W5M0MpCehiHzreSzNTczkc9d"?>
<x:xmpmeta xmlns:x="adobe:ns:meta/" x:xmptk="Adobe XMP Core 5.6-c140 79.160451, 2017/05/06-01:08:21        ">
   <rdf:RDF xmlns:rdf="http://www.w3.org/1999/02/22-rdf-syntax-ns#">
      <rdf:Description rdf:about=""/>
   </rdf:RDF>
</x:xmpmeta>
                                                                                                    
                                                                                                    
                                                                                                    
                                                                                                    
                                                                                                    
                                                                                                    
                                                                                                    
                                                                                                    
                                                                                                    
                                                                                                    
                                                                                                    
                                                                                                    
                                                                                                    
                                                                                                    
                                                                                                    
                                                                                                    
                                                                                                    
                                                                                                    
                                                                                                    
                                                                                                    
                           
<?xpacket end="w"?></metadata>
<defs>
    <style>
      .cls-1 {
        fill: #ff719c;
        fill-rule: evenodd;
      }
    </style>
  </defs>
  <path id="M" class="cls-1" d="M1209.82,633.952c-3.31,0-5.4,1.585-5.98,4.825l-3.38,19.73c-0.36,2.448-.58,4.968-0.86,7.416h-0.65c-0.22-2.448-.43-4.968-0.79-7.416l-3.6-19.73c-0.58-3.24-2.67-4.825-5.91-4.825h-13.46c-3.6,0-5.33,1.873-5.48,5.4l-1.72,44.284h14.04l1.22-38.02h1.08l4.97,25.347c0.58,3.168,2.66,4.752,5.98,4.752h8.06c3.31,0,5.4-1.584,5.91-4.752l4.89-25.347h1.08l1.51,38.02h14.05l-1.73-44.284c-0.15-3.528-1.88-5.4-5.48-5.4h-13.75Z" transform="translate(-1168 -633.938)"/>
</svg>
